<svg width="61" height="49" viewBox="0 0 61 49" fill="none" xmlns="http://www.w3.org/2000/svg">
<g id="PC" style="mix-blend-mode:overlay">
<path fill-rule="evenodd" clip-rule="evenodd" d="M1.59236 3.75232L1.99745 41.2692C1.46514 41.2605 0.402651 41.4613 0.411178 42.3342C0.419705 43.207 0.409131 44.7598 0.402778 45.427C0.376334 45.5955 0.431569 45.9837 0.864059 46.1893C1.29655 46.3949 2.90198 47.2757 3.65064 47.6904C3.8871 47.8591 4.54505 48.1947 5.28516 48.1875C5.57757 48.1846 10.599 48.1501 17.3467 48.1036C31.9467 48.0031 54.6284 47.8469 54.9734 47.836C55.0679 47.833 55.1688 47.8342 55.2749 47.8354C55.7355 47.8409 56.2943 47.8476 56.8508 47.5178C57.2636 47.2731 57.9196 46.8382 58.4355 46.4962C58.7751 46.271 59.0541 46.0861 59.163 46.0222C59.2281 45.984 59.2936 45.945 59.3579 45.9066C59.5643 45.7835 59.7597 45.6669 59.9005 45.6035L59.9155 45.5968C60.1052 45.5117 60.4722 45.3471 60.4666 44.7705C60.462 44.2966 60.4035 42.6323 60.3749 41.8593C60.273 41.4624 59.8297 40.6708 58.8711 40.6802C58.5727 40.6831 58.4134 40.5807 58.411 40.332C58.4086 40.0833 58.4305 37.1519 58.4379 36.834C58.4454 36.5161 58.4776 33.7204 58.4755 33.0421C58.4747 32.8131 58.4794 31.9279 58.4852 30.8147C58.4967 28.6306 58.5127 25.5689 58.502 24.8633C58.4858 23.7981 58.4123 16.8679 58.416 16.0631C58.4198 15.2582 58.3979 9.46242 58.3901 8.66923C58.3824 7.87605 58.2658 4.24095 58.2419 3.56952C58.2179 2.89809 57.9372 0.511837 55.1368 0.539193C52.8965 0.561078 43.9264 0.62741 39.7214 0.65784L6.81569 0.979284C6.25833 0.978718 5.00469 0.982548 4.44902 1.0024C3.75444 1.02722 3.07802 1.1322 2.45969 1.85043C1.84137 2.56867 1.58444 2.94178 1.59236 3.75232ZM6.94424 8.07745L7.16288 30.4595C7.15503 30.7126 7.19135 31.2649 7.39938 31.4493C7.65942 31.6798 7.76605 31.7494 8.45107 31.7427C8.69368 31.7404 11.0221 31.7101 13.9407 31.6722C19.2627 31.603 26.5468 31.5083 26.7249 31.5108C27.0006 31.5145 46.2753 31.345 46.8755 31.3391C47.2331 31.3356 48.685 31.3546 49.9011 31.3705C50.7268 31.3813 51.4438 31.3906 51.6358 31.3906C52.1106 31.3905 53.2974 31.1634 53.2893 30.3371C53.2828 29.6761 53.1627 14.8917 53.1035 7.58215C53.1275 7.2669 52.9676 6.63842 52.1357 6.64654C51.9717 6.64814 51.2632 6.6554 50.1816 6.66648C44.4047 6.72566 27.9815 6.89391 26.9874 6.89221C26.4318 6.89126 22.837 6.92983 19.0484 6.97048C14.7891 7.01618 10.2847 7.06451 9.57839 7.06227C8.53666 7.05896 7.98635 7.0719 7.69759 7.0787C7.61641 7.0806 7.5559 7.08203 7.51096 7.08247C7.50696 7.0825 7.50293 7.08254 7.49887 7.08258C7.29538 7.08442 7.02711 7.08684 6.98495 7.46119C6.94195 7.843 6.94284 7.93408 6.94424 8.07745Z" fill="#925FE2"/>
</g>
</svg>
